<?xml version="1.0" encoding="UTF-8"?>
<svg version="1.1" xmlns="http://www.w3.org/2000/svg" width="512" height="512">
<path d="M0 0 C1.13150172 -0.00352835 1.13150172 -0.00352835 2.28586206 -0.00712797 C4.82794583 -0.0138151 7.36997845 -0.01335983 9.91207027 -0.01294994 C11.74734463 -0.01624875 13.58261826 -0.01997435 15.41789097 -0.02409142 C20.47271983 -0.03411769 25.52753682 -0.03782923 30.58237422 -0.04048073 C36.02974142 -0.04438193 41.47709921 -0.05396041 46.92446041 -0.0626936 C60.08573299 -0.08246338 73.24700634 -0.09252494 86.40829006 -0.10142139 C92.60470992 -0.10580351 98.80112892 -0.11117052 104.9975481 -0.11641026 C125.59346909 -0.13342317 146.18938954 -0.14791758 166.78531647 -0.155159 C172.13102945 -0.15706892 177.47674244 -0.15898759 182.82245541 -0.16094494 C183.48658535 -0.16118509 184.1507153 -0.16142524 184.8349704 -0.16167267 C206.36318403 -0.16956397 227.89134253 -0.19299214 249.4195321 -0.22550088 C272.1837554 -0.25981329 294.94794797 -0.27951033 317.71219772 -0.28280324 C330.11984574 -0.28496904 342.52741274 -0.29372798 354.93503666 -0.31926441 C365.50153554 -0.34096121 376.06793373 -0.34902682 386.63445235 -0.33929763 C392.02515593 -0.33474999 397.41565172 -0.33666633 402.80632687 -0.35605907 C407.74440667 -0.3736701 412.68212677 -0.37270958 417.62021028 -0.35716178 C419.4035899 -0.3547826 421.18699429 -0.35912535 422.97033603 -0.37099043 C437.48589709 -0.46155965 449.54643599 1.68984033 460.51068783 11.94672108 C467.64520515 19.57327408 471.69105751 28.06974711 471.70740891 38.49905205 C471.71186675 39.81695608 471.71632459 41.13486012 471.72091752 42.49270064 C471.72082823 43.95898728 471.72063838 45.42527393 471.72035885 46.89156055 C471.72365822 48.44634863 471.72738394 50.00113585 471.73150033 51.55592197 C471.74152023 55.83544402 471.74523711 60.11495204 471.74788964 64.39448416 C471.75179274 69.00748867 471.76137111 73.62048208 471.7701025 78.2334795 C471.78986716 89.37767773 471.79993331 100.52187687 471.80883029 111.66608825 C471.81321335 116.91412773 471.81858013 122.1621662 471.82381916 127.41020489 C471.84083175 144.85615199 471.85532578 162.30209847 471.8625679 179.7480526 C471.8644778 184.27561983 471.86639813 188.80318706 471.86835384 193.33075428 C471.86883758 194.45605924 471.86932132 195.58136421 471.86981972 196.74076932 C471.87811947 214.96871984 471.90345534 233.19660472 471.93593452 251.42452658 C471.96900849 270.13884302 471.98701699 288.8531261 471.99021214 307.56747192 C471.99237697 318.07482023 472.0011216 328.58207284 472.02667332 339.08939266 C472.04838493 348.03827357 472.05642846 356.98703553 472.04670653 365.9359398 C472.04216314 370.50034894 472.0440504 375.06451268 472.06346798 379.62888813 C472.08110965 383.81201663 472.08009389 387.99472087 472.06457069 392.17785393 C472.06219613 393.68667359 472.06651029 395.19552269 472.07839934 396.70429737 C472.17592429 409.9041934 469.92975941 420.37164442 460.57318783 430.13422108 C451.92540157 438.11800912 442.8930443 442.29327189 431.14637566 442.26844215 C430.39204118 442.27079438 429.6377067 442.27314661 428.8605136 442.27557012 C426.31842983 442.28225725 423.77639721 442.28180199 421.23430538 442.2813921 C419.39903103 442.2846909 417.56375739 442.28841651 415.72848469 442.29253358 C410.67365583 442.30255984 405.61883884 442.30627138 400.56400144 442.30892289 C395.11663423 442.31282409 389.66927645 442.32240257 384.22191525 442.33113575 C371.06064267 442.35090553 357.89936931 442.3609671 344.7380856 442.36986354 C338.54166574 442.37424566 332.34524674 442.37961267 326.14882755 442.38485241 C305.55290657 442.40186532 284.95698612 442.41635973 264.36105919 442.42360115 C259.0153462 442.42551108 253.66963322 442.42742974 248.32392025 442.42938709 C247.6597903 442.42962724 246.99566036 442.42986739 246.31140526 442.43011482 C224.78319163 442.43800613 203.25503312 442.46143429 181.72684356 442.49394304 C158.96262025 442.52825545 136.19842768 442.54795249 113.43417794 442.55124539 C101.02652992 442.55341119 88.61896292 442.56217013 76.211339 442.58770657 C65.64484012 442.60940336 55.07844193 442.61746897 44.51192331 442.60773978 C39.12121972 442.60319215 33.73072393 442.60510848 28.34004879 442.62450123 C23.40196899 442.64211226 18.46424889 442.64115173 13.52616537 442.62560394 C11.74278576 442.62322475 9.95938136 442.6275675 8.17603963 442.63943259 C-6.33952144 442.73000181 -18.40006034 440.57860183 -29.36431217 430.32172108 C-36.49882949 422.69516808 -40.54468186 414.19869505 -40.56103325 403.76939011 C-40.56772001 401.79253405 -40.56772001 401.79253405 -40.57454187 399.77574152 C-40.57445257 398.30945487 -40.57426272 396.84316822 -40.57398319 395.3768816 C-40.57728256 393.82209353 -40.58100828 392.26730631 -40.58512467 390.71252018 C-40.59514457 386.43299813 -40.59886145 382.15349011 -40.60151398 377.87395799 C-40.60541708 373.26095348 -40.61499545 368.64796008 -40.62372684 364.03496265 C-40.6434915 352.89076442 -40.65355766 341.74656528 -40.66245463 330.6023539 C-40.6668377 325.35431442 -40.67220448 320.10627595 -40.6774435 314.85823727 C-40.6944561 297.41229016 -40.70895013 279.96634368 -40.71619225 262.52038956 C-40.71810214 257.99282232 -40.72002247 253.46525509 -40.72197819 248.93768787 C-40.72246193 247.81238291 -40.72294567 246.68707795 -40.72344407 245.52767283 C-40.73174382 227.29972232 -40.75707969 209.07183743 -40.78955887 190.84391557 C-40.82263283 172.12959914 -40.84064133 153.41531605 -40.84383649 134.70097023 C-40.84600131 124.19362192 -40.85474595 113.68636932 -40.88029766 103.17904949 C-40.90200927 94.23016858 -40.9100528 85.28140662 -40.90033088 76.33250236 C-40.89578748 71.76809322 -40.89767474 67.20392948 -40.91709232 62.63955402 C-40.934734 58.45642553 -40.93371823 54.27372128 -40.91819503 50.09058822 C-40.91582047 48.58176857 -40.92013463 47.07291946 -40.93202368 45.56414478 C-41.03957912 31.00663381 -37.86608655 21.06154987 -27.80571842 10.41937733 C-20.09190669 3.14952599 -10.38821001 -0.02195827 0 0 Z " fill="#918291" transform="translate(40.426812171936035,34.86577892303467)"/>
<path d="M0 0 C0.79339783 0.00141495 1.58679565 0.0028299 2.40423584 0.00428772 C4.93098772 0.0098721 7.45765004 0.02242171 9.984375 0.03515625 C11.70051955 0.04017327 13.41666549 0.04473582 15.1328125 0.04882812 C19.33336769 0.05983641 23.53385617 0.07709029 27.734375 0.09765625 C27.734375 0.42765625 27.734375 0.75765625 27.734375 1.09765625 C26.50074219 1.31808594 26.50074219 1.31808594 25.2421875 1.54296875 C12.78079191 4.04675955 4.33568572 8.78661902 -3.265625 19.09765625 C-9.14597552 28.2332008 -9.56160157 38.05389393 -9.53305054 48.64694214 C-9.53758165 49.88827066 -9.54211276 51.12959917 -9.54678118 52.40854371 C-9.55721064 55.83312126 -9.55875806 59.2574879 -9.55639243 62.6820662 C-9.55598271 66.38359961 -9.56703806 70.08510221 -9.57650757 73.78662109 C-9.59308384 81.03018237 -9.59861555 88.27371108 -9.59973232 95.51728974 C-9.60068423 101.40705045 -9.60480163 107.29680045 -9.61113358 113.18655777 C-9.62873539 129.90027621 -9.6379739 146.61396901 -9.63647263 163.32769679 C-9.63639272 164.22776485 -9.6363128 165.12783292 -9.63623047 166.05517578 C-9.63614871 166.95634774 -9.63606695 167.85751971 -9.63598271 168.78599991 C-9.63516971 183.39239061 -9.65431363 197.99867822 -9.6825072 212.6050391 C-9.71125532 227.61759923 -9.72504649 242.63010911 -9.72331965 257.64269745 C-9.7226565 266.06522678 -9.72811604 274.48764796 -9.74967575 282.91015244 C-9.76791276 290.08027509 -9.77221411 297.25024056 -9.7586569 304.42037641 C-9.75214041 308.07549272 -9.75196194 311.73030767 -9.7693634 315.38539505 C-9.78806823 319.35520278 -9.77550544 323.32457374 -9.76010132 327.29440308 C-9.77038844 328.43907102 -9.78067557 329.58373897 -9.79127443 330.76309383 C-9.68999809 342.60345448 -5.86323085 353.13527892 2.359375 361.8125 C10.32536968 369.05934238 18.11500507 372.21665203 28.83133125 372.23187733 C29.53785674 372.23422956 30.24438223 372.23658179 30.97231758 372.2390053 C33.34574713 372.24567558 35.71912169 372.24523767 38.09255981 372.24482727 C39.80907807 372.24812711 41.52559555 372.25185294 43.24211204 372.25596875 C47.964036 372.26598301 52.68594724 372.26970462 57.40788031 372.27235806 C62.49871708 372.27626276 67.5895438 372.28584093 72.68037415 372.29457092 C84.97655677 372.31432973 97.27274021 372.32440041 109.56893474 372.33329871 C115.35940181 372.33768222 121.14986797 372.34304883 126.94033432 372.34828758 C146.18863548 372.36529861 165.43693608 372.37979315 184.68524361 372.38703632 C189.67981085 372.38894621 194.67437809 372.39086655 199.66894531 372.39282227 C200.91031875 372.39330601 202.15169219 372.39378975 203.430683 372.39428815 C223.54355945 372.40258983 243.65637644 372.42792966 263.76922692 372.46040294 C284.41815613 372.49347003 305.06705511 372.51148473 325.71601093 372.51468056 C337.30986841 372.51684589 348.90363918 372.52559797 360.49747086 372.55114174 C370.37041904 372.57284383 380.24325944 372.5809015 390.11622877 372.57117496 C395.15252322 372.56662899 400.18859526 372.56853394 405.22485924 372.5879364 C409.8390834 372.60555925 414.45292274 372.6045774 419.06715094 372.58903911 C420.73273594 372.58666173 422.39834753 372.59099335 424.0638919 372.60286776 C437.65519125 372.69373227 448.5616024 370.83331753 458.734375 361.09765625 C464.6433253 354.63474186 468.83260756 346.88988877 469.734375 338.09765625 C470.064375 338.09765625 470.394375 338.09765625 470.734375 338.09765625 C470.82746703 347.2952441 470.89833728 356.49266727 470.94162369 365.69062519 C470.96240957 369.9626218 470.99056027 374.23429371 471.03613281 378.50610352 C471.07991489 382.63640171 471.1035796 386.76638956 471.11388397 390.89690208 C471.12121778 392.46482407 471.13553747 394.03273101 471.15729523 395.60051918 C471.33751659 409.137372 469.42886503 419.98249801 459.734375 430.09765625 C451.08658874 438.08144429 442.05423147 442.25670706 430.30756283 442.23187733 C429.55322835 442.23422956 428.79889387 442.23658179 428.02170077 442.2390053 C425.479617 442.24569242 422.93758438 442.24523716 420.39549255 442.24482727 C418.5602182 442.24812608 416.72494457 442.25185168 414.88967186 442.25596875 C409.834843 442.26599502 404.78002601 442.26970655 399.72518861 442.27235806 C394.27782141 442.27625926 388.83046362 442.28583774 383.38310242 442.29457092 C370.22182984 442.3143407 357.06055649 442.32440227 343.89927277 442.33329871 C337.70285291 442.33768084 331.50643391 442.34304785 325.31001472 442.34828758 C304.71409374 442.36530049 284.11817329 442.3797949 263.52224636 442.38703632 C258.17653337 442.38894625 252.83082039 442.39086492 247.48510742 442.39282227 C246.82097748 442.39306242 246.15684753 442.39330257 245.47259243 442.39354999 C223.9443788 442.4014413 202.4162203 442.42486946 180.88803073 442.45737821 C158.12380742 442.49169062 135.35961486 442.51138766 112.59536511 442.51468056 C100.18771709 442.51684636 87.78015009 442.52560531 75.37252617 442.55114174 C64.80602729 442.57283853 54.2396291 442.58090415 43.67311048 442.57117496 C38.2824069 442.56662732 32.8919111 442.56854365 27.50123596 442.5879364 C22.56315616 442.60554743 17.62543606 442.6045869 12.68735255 442.58903911 C10.90397293 442.58665993 9.12056854 442.59100268 7.3372268 442.60286776 C-7.17833426 442.69343698 -19.23887317 440.542037 -30.203125 430.28515625 C-37.33764232 422.65860325 -41.38349469 414.16213022 -41.39984608 403.73282528 C-41.40653284 401.75596923 -41.40653284 401.75596923 -41.41335469 399.73917669 C-41.4132654 398.27289004 -41.41307555 396.8066034 -41.41279602 395.34031677 C-41.41609539 393.7855287 -41.41982111 392.23074148 -41.4239375 390.67595536 C-41.4339574 386.39643331 -41.43767428 382.11692528 -41.44032681 377.83739316 C-41.44422991 373.22438865 -41.45380828 368.61139525 -41.46253967 363.99839783 C-41.48230433 352.85419959 -41.49237048 341.71000045 -41.50126746 330.56578907 C-41.50565053 325.31774959 -41.5110173 320.06971112 -41.51625633 314.82167244 C-41.53326892 297.37572533 -41.54776295 279.92977886 -41.55500507 262.48382473 C-41.55691497 257.95625749 -41.5588353 253.42869026 -41.56079102 248.90112305 C-41.56127476 247.77581808 -41.5617585 246.65051312 -41.5622569 245.49110801 C-41.57055665 227.26315749 -41.59589252 209.03527261 -41.62837169 190.80735075 C-41.66144566 172.09303431 -41.67945416 153.37875122 -41.68264931 134.66440541 C-41.68481414 124.15705709 -41.69355878 113.64980449 -41.71911049 103.14248466 C-41.7408221 94.19360375 -41.74886563 85.24484179 -41.73914371 76.29593753 C-41.73460031 71.73152839 -41.73648757 67.16736465 -41.75590515 62.6029892 C-41.77354683 58.4198607 -41.77253106 54.23715646 -41.75700786 50.05402339 C-41.7546333 48.54520374 -41.75894746 47.03635463 -41.77083651 45.52757996 C-41.87839195 30.97006898 -38.70489937 21.02498505 -28.64453125 10.3828125 C-20.6276285 2.82731422 -10.74288501 -0.07230869 0 0 Z " fill="#685E68" transform="translate(41.265625,34.90234375)"/>
<path d="M0 0 C0.54721795 13.81725319 0.28672791 24.84148528 -9.01953125 35.93359375 C-16.20571567 43.43160471 -25.46528344 49.69156236 -36.11833 50.1276505 C-37.35882669 50.128897 -38.59932339 50.13014349 -39.87741089 50.13142776 C-40.57235269 50.1334804 -41.2672945 50.13553303 -41.98329514 50.13764787 C-44.32335377 50.1433243 -46.66335366 50.14185982 -49.00341797 50.14044189 C-50.69361152 50.14302518 -52.38380446 50.14603823 -54.07399654 50.1494453 C-58.72784167 50.15752317 -63.38167139 50.15930531 -68.0355227 50.16004276 C-73.05141124 50.161892 -78.06729175 50.16943878 -83.08317566 50.17617798 C-94.05653396 50.18976839 -105.02988862 50.19578739 -116.00325394 50.20018864 C-122.85518725 50.2029504 -129.70711915 50.20718769 -136.55905151 50.21169281 C-155.52937227 50.22388742 -174.49969189 50.23418569 -193.47001648 50.2375679 C-194.68454547 50.23778747 -195.89907447 50.23800703 -197.15040737 50.23823325 C-198.36785309 50.23845153 -199.5852988 50.23866981 -200.8396368 50.2388947 C-203.30666542 50.23933817 -205.77369404 50.23978473 -208.24072266 50.24023438 C-209.4644556 50.2404558 -210.68818854 50.24067723 -211.94900429 50.24090537 C-231.77026359 50.24485192 -251.59148609 50.26230071 -271.41273117 50.2855939 C-291.76218053 50.30931473 -312.11161143 50.32177012 -332.46107483 50.32293582 C-343.88672895 50.32385228 -355.31233516 50.32959706 -366.73797607 50.34775543 C-376.46927514 50.36316641 -386.2005115 50.36827105 -395.93182045 50.36001733 C-400.89528524 50.35611411 -405.85862378 50.35702442 -410.82207298 50.37107468 C-415.37095454 50.38383335 -419.91961522 50.38259879 -424.46849656 50.37048396 C-426.10922779 50.36853035 -427.74997477 50.37158981 -429.39068389 50.38032833 C-444.77576106 50.457045 -457.90403099 48.5026746 -469.75 37.875 C-474.45693735 32.84305983 -479.11362207 25.85841603 -478.90625 18.81640625 C-477.81092329 15.41239521 -477.08501999 14.73682041 -474 13 C-470.74635869 12.62329382 -470.74635869 12.62329382 -466.79297352 12.62082577 C-466.06238548 12.61627505 -465.33179743 12.61172434 -464.57907036 12.60703573 C-462.1175397 12.59537452 -459.65655568 12.6051577 -457.19502258 12.61473083 C-455.41764422 12.61072586 -453.64026843 12.60540076 -451.86289757 12.59886509 C-446.96782167 12.58466965 -442.07291112 12.58915959 -437.17782676 12.59657824 C-431.90211363 12.60130571 -426.62643925 12.58876551 -421.35073853 12.57821655 C-412.20276681 12.56221605 -403.05483942 12.55696816 -393.90685463 12.55874443 C-380.6618167 12.5611262 -367.41684963 12.5451475 -354.1718302 12.52429188 C-332.65939913 12.49073446 -311.14697439 12.46909519 -289.63452148 12.45629883 C-288.34630657 12.45552934 -287.05809166 12.45475985 -285.73083993 12.45396704 C-280.51217523 12.4508652 -275.29351051 12.44778237 -270.07484578 12.444727 C-255.73666319 12.43620997 -241.39848282 12.42530594 -227.06030273 12.41333008 C-225.7775964 12.41226206 -224.49489006 12.41119404 -223.17331383 12.41009366 C-201.75823025 12.39197813 -180.34316164 12.36596897 -158.92809266 12.33519894 C-145.72433496 12.31667477 -132.52061096 12.30573102 -119.31684007 12.30467702 C-110.25786613 12.30357043 -101.19891523 12.29558947 -92.13995103 12.28229337 C-86.9186898 12.27490111 -81.69747899 12.27075761 -76.47621346 12.27541161 C-71.68593462 12.27964031 -66.89575415 12.27458527 -62.10548951 12.26250375 C-60.38257443 12.25976096 -58.65964988 12.26030797 -56.93673817 12.26468485 C-48.50986679 12.28434461 -40.19518445 12.07444726 -31.8152647 11.1283884 C-30.7996105 11.01610519 -30.7996105 11.01610519 -29.76343803 10.90155363 C-19.99480522 9.66968428 -10.98228149 5.96902307 -2.57421875 0.91796875 C-1 0 -1 0 0 0 Z " fill="#796C78" transform="translate(512,427)"/>
<path d="M0 0 C0.79339783 0.00141495 1.58679565 0.0028299 2.40423584 0.00428772 C4.93098772 0.0098721 7.45765004 0.02242171 9.984375 0.03515625 C11.70051955 0.04017327 13.41666549 0.04473582 15.1328125 0.04882812 C19.33336769 0.05983641 23.53385617 0.07709029 27.734375 0.09765625 C27.734375 0.42765625 27.734375 0.75765625 27.734375 1.09765625 C26.50074219 1.31808594 26.50074219 1.31808594 25.2421875 1.54296875 C12.78079191 4.04675955 4.33568572 8.78661902 -3.265625 19.09765625 C-9.14597552 28.2332008 -9.56160157 38.05389393 -9.53305054 48.64694214 C-9.53758165 49.88827066 -9.54211276 51.12959917 -9.54678118 52.40854371 C-9.55721064 55.83312126 -9.55875806 59.2574879 -9.55639243 62.6820662 C-9.55598271 66.38359961 -9.56703806 70.08510221 -9.57650757 73.78662109 C-9.59308384 81.03018237 -9.59861555 88.27371108 -9.59973232 95.51728974 C-9.60068423 101.40705045 -9.60480163 107.29680045 -9.61113358 113.18655777 C-9.62873539 129.90027621 -9.6379739 146.61396901 -9.63647263 163.32769679 C-9.63639272 164.22776485 -9.6363128 165.12783292 -9.63623047 166.05517578 C-9.63614871 166.95634774 -9.63606695 167.85751971 -9.63598271 168.78599991 C-9.63516971 183.39239061 -9.65431363 197.99867822 -9.6825072 212.6050391 C-9.71125532 227.61759923 -9.72504649 242.63010911 -9.72331965 257.64269745 C-9.7226565 266.06522678 -9.72811604 274.48764796 -9.74967575 282.91015244 C-9.76791276 290.08027509 -9.77221411 297.25024056 -9.7586569 304.42037641 C-9.75214041 308.07549272 -9.75196194 311.73030767 -9.7693634 315.38539505 C-9.78806823 319.35520278 -9.77550544 323.32457374 -9.76010132 327.29440308 C-9.77038844 328.43907102 -9.78067557 329.58373897 -9.79127443 330.76309383 C-9.68999809 342.60345448 -5.86323085 353.13527892 2.359375 361.8125 C10.31911037 369.05364815 18.10738138 372.21365596 28.81520557 372.23632145 C29.87233946 372.24058478 29.87233946 372.24058478 30.9508296 372.24493423 C33.31812774 372.25327232 35.6853769 372.25454875 38.0526886 372.25587463 C39.7646724 372.26044059 41.4766551 372.26544066 43.18863648 372.2708382 C47.89758886 372.28442491 52.606534 372.29183922 57.31550086 372.29826486 C62.3918153 372.30626644 67.46811471 372.31996506 72.54441833 372.33297729 C81.34098655 372.35474346 90.13755628 372.37288745 98.93413734 372.38858223 C111.65257082 372.41127957 124.37098764 372.4394226 137.08940699 372.46890151 C157.72341567 372.51657907 178.35743115 372.55984282 198.99145508 372.6003418 C219.03735891 372.63969588 239.08325668 372.6811219 259.12915039 372.7253418 C260.36445294 372.72806607 261.59975549 372.73079034 262.87249146 372.73359717 C269.06954386 372.74727663 275.26659617 372.76099691 281.46364844 372.77473748 C332.88721134 372.88870485 384.31078735 372.99551364 435.734375 373.09765625 C435.734375 373.42765625 435.734375 373.75765625 435.734375 374.09765625 C379.77488194 374.18922623 323.81539635 374.25970234 267.85584309 374.30191757 C261.24821493 374.30692035 254.64058692 374.31209764 248.03295898 374.31738281 C246.71750791 374.31843205 245.40205683 374.3194813 244.04674359 374.32056233 C222.75153027 374.3379641 201.45636591 374.36950056 180.16117642 374.40626743 C158.30780653 374.44368314 136.45445927 374.46589345 114.60105866 374.47401023 C101.11805239 374.47949667 87.63516831 374.49682074 74.15219965 374.52932212 C64.90445787 374.55047773 55.65677919 374.55685389 46.40901498 374.55166176 C41.0747938 374.54910165 35.74078603 374.55300622 30.40660286 374.57447815 C25.517609 374.59401385 20.62897107 374.59488077 15.73996045 374.58125183 C13.97661116 374.57956861 12.2132392 374.58458306 10.44993416 374.59718898 C-4.59347698 374.69843167 -18.14389626 372.87732017 -29.453125 361.9921875 C-39.95962505 350.77109094 -41.5734247 339.38258558 -41.53305054 324.39015198 C-41.53758165 323.14388548 -41.54211276 321.89761899 -41.54678118 320.61358684 C-41.55719999 317.17986714 -41.55875992 313.74635804 -41.55639243 310.31263769 C-41.55598232 306.59953355 -41.56704166 302.88646003 -41.57650757 299.17337036 C-41.59307481 291.90922485 -41.59861512 284.6451118 -41.59973232 277.38094897 C-41.60068456 271.47452646 -41.60480359 265.56811461 -41.61113358 259.66169548 C-41.62873209 242.89854768 -41.63797429 226.13542543 -41.63647263 209.37226833 C-41.63639272 208.46977867 -41.6363128 207.567289 -41.63623047 206.63745117 C-41.63614871 205.7338541 -41.63606695 204.83025702 -41.63598271 203.89927822 C-41.63516956 189.25091881 -41.654318 174.60266216 -41.6825072 159.95433248 C-41.71125479 144.89654022 -41.72504656 129.83879806 -41.72331965 114.78097767 C-41.72265654 106.33387115 -41.72811474 97.88687246 -41.74967575 89.43979073 C-41.76791195 82.24956365 -41.77221469 75.05949333 -41.7586569 67.86925311 C-41.75214032 64.20400382 -41.75196236 60.53905505 -41.7693634 56.87383461 C-41.78806732 52.89313311 -41.77550589 48.91286721 -41.76010132 44.93214417 C-41.77038844 43.78426739 -41.78067557 42.63639061 -41.79127443 41.45372969 C-41.68172392 28.61187931 -37.37148995 19.61446279 -28.64453125 10.3828125 C-20.6276285 2.82731422 -10.74288501 -0.07230869 0 0 Z " fill="#7A6D79" transform="translate(41.265625,34.90234375)"/>
<path d="M0 0 C3.16248321 1.12004614 5.07678876 2.62161629 7.625 4.8046875 C8.58792969 5.62066406 9.55085937 6.43664062 10.54296875 7.27734375 C11.04747559 7.71191895 11.55198242 8.14649414 12.07177734 8.59423828 C13.61838563 9.92400051 15.17613634 11.23932085 16.73828125 12.55078125 C49.45385437 40.04412661 49.45385437 40.04412661 50.05078125 43.1328125 C49.42495671 47.24373334 46.8258619 49.0938035 43.8125 51.6796875 C43.22009521 52.20626953 42.62769043 52.73285156 42.01733398 53.27539062 C37.61173265 57.16209559 33.08801239 60.90318265 28.5078125 64.58203125 C25.13899021 67.32547596 21.85134397 70.1539125 18.5625 72.9921875 C16.80052163 74.50057317 15.0371595 76.0073256 13.2734375 77.51367188 C11.73572712 78.83457238 10.21107495 80.17063236 8.6875 81.5078125 C7.82125 82.24515625 6.955 82.9825 6.0625 83.7421875 C5.31871094 84.38800781 4.57492187 85.03382813 3.80859375 85.69921875 C1.625 86.9296875 1.625 86.9296875 -1.02734375 86.75390625 C-3.375 85.9296875 -3.375 85.9296875 -5.375 83.9296875 C-5.60205078 81.59130859 -5.60205078 81.59130859 -5.5703125 78.703125 C-5.56064453 77.15625 -5.56064453 77.15625 -5.55078125 75.578125 C-5.52564453 73.95777344 -5.52564453 73.95777344 -5.5 72.3046875 C-5.49097656 71.21671875 -5.48195313 70.12875 -5.47265625 69.0078125 C-5.44903409 66.31488598 -5.41609556 63.62239495 -5.375 60.9296875 C-7.09477539 60.93383557 -7.09477539 60.93383557 -8.84929371 60.93806744 C-36.7149557 61.00459348 -64.58060742 61.05393022 -92.44633198 61.08512402 C-95.12624939 61.08818367 -97.80616671 61.09130762 -100.48608398 61.09448242 C-101.15220415 61.09526935 -101.81832431 61.09605628 -102.50462993 61.09686706 C-113.29849455 61.10993048 -124.09231136 61.13358944 -134.8861476 61.16114589 C-145.95688857 61.18917411 -157.02761 61.20563364 -168.09838551 61.21195298 C-174.31867776 61.21587234 -180.53886149 61.2251174 -186.75911903 61.24687767 C-192.6088383 61.2671767 -198.45840392 61.27353466 -204.30815506 61.26901054 C-206.45966742 61.2698387 -208.6111847 61.27584334 -210.7626667 61.28730392 C-213.69140051 61.30214498 -216.61954778 61.29867183 -219.54829407 61.29045105 C-220.40723701 61.29918957 -221.26617996 61.3079281 -222.15115148 61.31693143 C-227.93496123 61.27279647 -227.93496123 61.27279647 -230.0914771 59.59130841 C-232.10331587 56.98682558 -231.76414722 54.63853276 -231.7734375 51.3984375 C-231.77730469 50.11324219 -231.78117187 48.82804687 -231.78515625 47.50390625 C-231.77887207 46.83536621 -231.77258789 46.16682617 -231.76611328 45.47802734 C-231.75005354 43.4364942 -231.76596671 41.39694042 -231.78515625 39.35546875 C-231.78128906 38.07027344 -231.77742188 36.78507812 -231.7734375 35.4609375 C-231.77005371 34.28080078 -231.76666992 33.10066406 -231.76318359 31.88476562 C-231.32798877 28.57181084 -230.93439234 27.92530818 -228.375 25.9296875 C-225.3635932 25.64108574 -222.56023001 25.53828178 -219.54829407 25.56892395 C-218.63509862 25.56636068 -217.72190317 25.5637974 -216.78103513 25.56115645 C-213.7084197 25.55619877 -210.63629117 25.57274426 -207.5637207 25.58911133 C-205.36626192 25.58995717 -203.16880228 25.5894833 -200.97134399 25.58778381 C-194.99436574 25.58692077 -189.017567 25.60459662 -183.04063058 25.62550569 C-176.79859587 25.64422097 -170.55655734 25.64601886 -164.3144989 25.64958191 C-153.83390394 25.65785592 -143.35336469 25.67661248 -132.87280273 25.70336914 C-122.07723318 25.73090137 -111.28168155 25.75213903 -100.48608398 25.76489258 C-99.82077214 25.76568075 -99.1554603 25.76646892 -98.46998749 25.76728097 C-95.13235161 25.77119605 -91.79471561 25.77498042 -88.45707953 25.77871668 C-60.763007 25.81010007 -33.06900814 25.86289003 -5.375 25.9296875 C-5.39856567 24.90814575 -5.39856567 24.90814575 -5.42260742 23.8659668 C-5.48493222 20.78312469 -5.52398258 17.70041506 -5.5625 14.6171875 C-5.58763672 13.54533203 -5.61277344 12.47347656 -5.63867188 11.36914062 C-5.65317383 9.82709961 -5.65317383 9.82709961 -5.66796875 8.25390625 C-5.69153442 6.8321106 -5.69153442 6.8321106 -5.71557617 5.3815918 C-5.375 2.9296875 -5.375 2.9296875 -4.00512695 1.0925293 C-2.375 -0.0703125 -2.375 -0.0703125 0 0 Z " fill="#F4F7F8" transform="translate(308.375,245.0703125)"/>
<path d="M0 0 C2 2 2 2 2.22705078 4.33837891 C2.21657715 5.29147949 2.20610352 6.24458008 2.1953125 7.2265625 C2.18886719 8.2578125 2.18242187 9.2890625 2.17578125 10.3515625 C2.15902344 11.43179688 2.14226562 12.51203125 2.125 13.625 C2.11597656 14.71296875 2.10695312 15.8009375 2.09765625 16.921875 C2.07403409 19.61480152 2.04109556 22.30729255 2 25 C3.71977539 24.99585193 3.71977539 24.99585193 5.47429371 24.99162006 C33.3399557 24.92509402 61.20560742 24.87575728 89.07133198 24.84456348 C91.75124939 24.84150383 94.43116671 24.83837988 97.11108398 24.83520508 C97.77720415 24.83441815 98.44332431 24.83363122 99.12962993 24.83282044 C109.92349455 24.81975702 120.71731136 24.79609806 131.5111476 24.76854161 C142.58188857 24.74051339 153.65261 24.72405386 164.72338551 24.71773452 C170.94367776 24.71381516 177.16386149 24.7045701 183.38411903 24.68280983 C189.2338383 24.6625108 195.08340392 24.65615284 200.93315506 24.66067696 C203.08466742 24.6598488 205.2361847 24.65384416 207.3876667 24.64238358 C210.31640051 24.62754252 213.24454778 24.63101567 216.17329407 24.63923645 C217.03223701 24.63049793 217.89117996 24.6217594 218.77615148 24.61275607 C224.55996123 24.65689103 224.55996123 24.65689103 226.7164771 26.33837909 C228.72831587 28.94286192 228.38914722 31.29115474 228.3984375 34.53125 C228.40230469 35.81644531 228.40617187 37.10164063 228.41015625 38.42578125 C228.40387207 39.09432129 228.39758789 39.76286133 228.39111328 40.45166016 C228.37505354 42.4931933 228.39096671 44.53274708 228.41015625 46.57421875 C228.40628906 47.85941406 228.40242188 49.14460938 228.3984375 50.46875 C228.39505371 51.64888672 228.39166992 52.82902344 228.38818359 54.04492188 C227.95294372 57.35821961 227.55808001 58.0028122 225 60 C222.00230654 60.30066086 219.21086158 60.41573317 216.21125793 60.39872742 C214.84759009 60.40869766 214.84759009 60.40869766 213.45637339 60.41886932 C210.39764231 60.43758252 207.33929953 60.43488843 204.28051758 60.43237305 C202.09290511 60.44138512 199.90529771 60.45171096 197.71769714 60.46325684 C191.76763813 60.49091804 185.81767468 60.50012373 179.86755967 60.50611091 C173.6535042 60.51547088 167.43952079 60.54167227 161.22550964 60.56611633 C150.79203502 60.6048773 140.35857477 60.63320294 129.92504883 60.65356445 C119.17795036 60.67456643 108.43089797 60.70183466 97.68383789 60.73754883 C96.69035062 60.74084707 96.69035062 60.74084707 95.6767929 60.74421193 C92.35414063 60.75528139 89.03148882 60.76648097 85.70883715 60.77772844 C58.13926389 60.87067388 30.56966797 60.94230924 3 61 C2.98541748 61.65073486 2.97083496 62.30146973 2.95581055 62.97192383 C2.88135451 65.91938306 2.78468734 68.86570642 2.6875 71.8125 C2.66494141 72.83666016 2.64238281 73.86082031 2.61914062 74.91601562 C2.58369141 75.89892578 2.54824219 76.88183594 2.51171875 77.89453125 C2.48553467 78.80050049 2.45935059 79.70646973 2.43237305 80.63989258 C1.9253525 83.40746323 1.25683339 84.35798501 -1 86 C-5.34969442 85.86429525 -7.71031653 83.94726398 -10.9375 81.1875 C-11.89527344 80.37667969 -12.85304687 79.56585938 -13.83984375 78.73046875 C-14.89378575 77.82095707 -15.94714775 76.91077295 -17 76 C-18.14669384 75.01641205 -19.29384175 74.03335326 -20.44140625 73.05078125 C-22.2294692 71.51889555 -24.01643384 69.98583328 -25.79980469 68.44848633 C-29.38273349 65.36373188 -33.00854156 62.34545717 -36.6875 59.375 C-38.46274806 57.922044 -40.23347315 56.46354696 -42 55 C-42.76183594 54.36916504 -42.76183594 54.36916504 -43.5390625 53.72558594 C-45.10327336 52.41661884 -46.64716431 51.08693271 -48.1875 49.75 C-49.10917969 48.96109375 -50.03085938 48.1721875 -50.98046875 47.359375 C-53 45 -53 45 -53.6015625 42.5 C-52.74155665 38.92594971 -50.96217908 37.62497007 -48.1875 35.25 C-47.68831055 34.8166333 -47.18912109 34.3832666 -46.67480469 33.93676758 C-42.53045392 30.36483735 -38.2771795 26.91973067 -34.01953125 23.484375 C-30.43340618 20.53382449 -26.93616217 17.49068713 -23.4375 14.4375 C-21.54048066 12.79327335 -19.64185384 11.15093307 -17.7421875 9.50976562 C-16.1658083 8.14368814 -14.59800981 6.76772441 -13.03125 5.390625 C-12.1753125 4.66359375 -11.319375 3.9365625 -10.4375 3.1875 C-9.71433594 2.56230469 -8.99117187 1.93710938 -8.24609375 1.29296875 C-5.3162311 -0.39361306 -3.32665198 -0.37875462 0 0 Z " fill="#F4F7F8" transform="translate(207,116)"/>
<path d="M0 0 C0.98533974 -0.00074776 0.98533974 -0.00074776 1.99058533 -0.00151062 C3.37664827 0.00082637 4.76271574 0.010533 6.14868164 0.02709961 C8.27333359 0.05073664 10.39673397 0.04765317 12.52148438 0.04101562 C22.9356846 0.0841221 22.9356846 0.0841221 25.21484375 2.36328125 C25.46931934 4.71213531 25.46931934 4.71213531 25.47554016 7.7154541 C25.48262497 8.85122391 25.48970978 9.98699371 25.49700928 11.15718079 C25.49453186 12.40919785 25.49205444 13.6612149 25.48950195 14.95117188 C25.49461288 16.26498337 25.49972382 17.57879486 25.50498962 18.93241882 C25.51840807 22.54185185 25.51895523 26.15118035 25.51642632 29.76063347 C25.51535868 32.77028645 25.5202346 35.77991809 25.52503175 38.78956652 C25.53613646 45.88723366 25.53655873 52.98484789 25.53051758 60.08251953 C25.52447383 67.4136848 25.53679665 74.74465833 25.55808765 82.07579088 C25.57567761 88.36287174 25.5817092 94.64989141 25.5784499 100.93699598 C25.57663295 104.69521768 25.57931412 108.45330257 25.59316444 112.21150208 C25.60802094 116.39959251 25.59879561 120.5872901 25.5871582 124.77539062 C25.59862381 126.65341621 25.59862381 126.65341621 25.61032104 128.56938171 C25.60330673 129.70515152 25.59629242 130.84092133 25.58906555 132.0111084 C25.58923329 133.0022036 25.58940104 133.9932988 25.58957386 135.01442719 C25.40408246 136.17710995 25.40408246 136.17710995 25.21484375 137.36328125 C20.46576147 140.52933611 15.34998779 139.6971334 9.76318359 139.67895508 C7.72178921 139.67579201 5.68184056 139.69927252 3.640625 139.72460938 C1.71283203 139.72557617 1.71283203 139.72557617 -0.25390625 139.7265625 C-1.43404297 139.72954346 -2.61417969 139.73252441 -3.83007812 139.7355957 C-6.78515625 139.36328125 -6.78515625 139.36328125 -8.4460392 138.17687225 C-10.27901878 135.69443409 -10.16254019 134.04553494 -10.16610718 130.97351074 C-10.17456665 129.85463974 -10.18302612 128.73576874 -10.19174194 127.58299255 C-10.18566925 126.35484329 -10.17959656 125.12669403 -10.17333984 123.86132812 C-10.1785968 122.56848404 -10.18385376 121.27563995 -10.18927002 119.94361877 C-10.2029594 116.39610187 -10.19763845 112.84884638 -10.18813276 109.30132484 C-10.18054449 105.59113478 -10.18757945 101.8809673 -10.19229126 98.17077637 C-10.19775126 91.93981909 -10.19055086 85.70896844 -10.17626953 79.47802734 C-10.15994247 72.27124915 -10.16523082 65.06472557 -10.18174875 57.85795355 C-10.19535672 51.67358643 -10.19728667 45.48929602 -10.18943274 39.30491877 C-10.1847524 35.60984784 -10.18414118 31.91489664 -10.19404221 28.21983337 C-10.20430635 24.10147997 -10.19008579 19.98356643 -10.17333984 15.86523438 C-10.18244888 14.02301048 -10.18244888 14.02301048 -10.19174194 12.14356995 C-10.17905273 10.46526344 -10.17905273 10.46526344 -10.16610718 8.75305176 C-10.1649761 7.77892586 -10.16384502 6.80479996 -10.16267967 5.80115509 C-9.78515625 3.36328125 -9.78515625 3.36328125 -8.45276833 1.54969025 C-5.764069 -0.36316294 -3.24674685 -0.0078789 0 0 Z " fill="#F3F6F7" transform="translate(88.78515625,88.63671875)"/>
<path d="M0 0 C1.04450317 0.00326294 1.04450317 0.00326294 2.11010742 0.0065918 C4.23278268 0.00974873 6.35405999 -0.01369198 8.4765625 -0.0390625 C9.82486803 -0.04133583 11.17317731 -0.04203883 12.52148438 -0.04101562 C14.36407837 -0.04548706 14.36407837 -0.04548706 16.24389648 -0.05004883 C19.30664062 0.32226562 19.30664062 0.32226562 20.97383213 1.51146793 C22.79159453 3.98114003 22.68663612 5.61409401 22.69432068 8.66734314 C22.70422531 9.77635483 22.71412994 10.88536652 22.72433472 12.02798462 C22.71758224 13.85382584 22.71758224 13.85382584 22.71069336 15.71655273 C22.71755661 16.99803696 22.72441986 18.27952118 22.73149109 19.59983826 C22.74945681 23.11641827 22.74824775 26.63274922 22.7425487 30.14936137 C22.73946156 33.08432587 22.74554403 36.0192422 22.75158745 38.95419985 C22.76564244 45.87795446 22.76406352 52.80158572 22.75268555 59.7253418 C22.74120457 66.86967069 22.75527713 74.01362419 22.78208202 81.15790361 C22.80423012 87.29048685 22.8108784 93.42295217 22.80500561 99.55557257 C22.80163249 103.21886624 22.80407422 106.88191929 22.82125664 110.54517937 C22.839579 114.62988983 22.82554804 118.71386873 22.80834961 122.79858398 C22.81801758 124.01378723 22.82768555 125.22899048 22.83764648 126.48101807 C22.82781235 127.59284958 22.81797821 128.70468109 22.80784607 129.85020447 C22.80763679 130.81603423 22.8074275 131.78186399 22.80721188 132.77696133 C22.1580367 136.07788672 20.92359067 137.27051785 18.30664062 139.32226562 C15.32983398 139.82397461 15.32983398 139.82397461 11.89648438 139.81835938 C10.04120117 139.81932617 10.04120117 139.81932617 8.1484375 139.8203125 C6.86001953 139.80033203 5.57160156 139.78035156 4.24414062 139.75976562 C2.30571289 139.77040039 2.30571289 139.77040039 0.328125 139.78125 C-9.14244781 139.71702598 -9.14244781 139.71702598 -11.34793377 138.1366663 C-13.19701819 135.64304644 -13.06810856 133.9777283 -13.06758118 130.88780212 C-13.07459549 129.75907181 -13.0816098 128.63034149 -13.08883667 127.46740723 C-13.08119293 126.22833618 -13.07354919 124.98926514 -13.06567383 123.71264648 C-13.06932449 122.40844254 -13.07297516 121.10423859 -13.07673645 119.76051331 C-13.08614973 116.18206018 -13.07671704 112.60388036 -13.06340432 109.02544856 C-13.05209891 105.28410084 -13.05619656 101.54276675 -13.05815125 97.80140686 C-13.0590344 91.5191704 -13.04794846 85.2370418 -13.02954102 78.95483398 C-13.00836382 71.68559428 -13.00486532 64.41651252 -13.01110297 57.14724821 C-13.0167917 50.16067535 -13.01115739 43.17415827 -12.99992943 36.18759346 C-12.99527785 33.21114638 -12.99441198 30.23473335 -12.99651527 27.25828362 C-12.99874349 23.10626782 -12.98431032 18.9544746 -12.96801758 14.80249023 C-12.970495 13.56139496 -12.97297241 12.32029968 -12.9755249 11.04159546 C-12.96844009 9.91568497 -12.96135529 8.78977448 -12.95405579 7.62974548 C-12.95200292 6.64732345 -12.94995005 5.66490141 -12.94783497 4.65270901 C-12.2379689 -1.84812141 -4.98254066 0.02062374 0 0 Z " fill="#F3F6F7" transform="translate(410.693359375,218.677734375)"/>
</svg>
